# xmcd CD database file
#
# Track frame offsets:
#	150
#	23165
#	44191
#	67141
#	85603
#	102956
#	121673
#	141046
#	159659
#	173387
#	194380
#	210309
#	231625
#	245832
#	266422
#	279290
#	298839
#
# Disc length: 4282 seconds
#
# Revision: 0
# Processed by: cddbd v1.5.2PL0 Copyright (c) Steve Scherf et al.
# Submitted via: CDex 1.51
#
DISCID=f810b811
DTITLE=Alan Jackson - Good Time
DYEAR=2008
DGENRE=Country
TTITLE0=AGood Time
TTITLE1=Small Town Southern Man
TTITLE2=I Wish I Could Back Up
TTITLE3=Country Boy
TTITLE4=Right Where I Want You
TTITLE5=1976
TTITLE6=When The Love Factor's High
TTITLE7=Long Long Way
TTITLE8=Sissy's Song
TTITLE9=I Still Like Bologna
TTITLE10=Never Loved Before (with Martina McBride)
TTITLE11=Nothing Left To Do
TTITLE12=Listen To Your Senses
TTITLE13=This Time
TTITLE14=Laid Back 'N Low Key (Cay)
TTITLE15=If You Want To Make Me Happy
TTITLE16=If Jesus Walked The World Today
EXTD=YEAR: 2008
EXTT0=
EXTT1=
EXTT2=
EXTT3=
EXTT4=
EXTT5=
EXTT6=
EXTT7=
EXTT8=
EXTT9=
EXTT10=
EXTT11=
EXTT12=
EXTT13=
EXTT14=
EXTT15=
EXTT16=
PLAYORDER=
